 <svg fill="white" xmlns="http://www.w3.org/2000/svg" width="21" height="20" ><path d="M13.72 8.386l.54 2.239c.124.515.387.961.755 1.307s.844.593 1.392.709l2.384.507c.229.048.372.262.321.476-.037.155-.166.269-.321.302l-2.384.507a2.9 2.9 0 0 0-1.392.709c-.367.346-.631.792-.755 1.307l-.54 2.239c-.051.215-.279.35-.507.302-.165-.035-.286-.156-.321-.302l-.54-2.239a2.62 2.62 0 0 0-.755-1.307c-.369-.346-.844-.593-1.391-.71l-2.385-.507c-.229-.048-.373-.262-.321-.477.037-.155.166-.269.321-.302l2.384-.507a2.9 2.9 0 0 0 1.392-.709c.367-.346.631-.792.755-1.307l.54-2.239c.051-.215.279-.35.507-.302.165.035.287.156.321.302zm2.492-7.074l.249 1.035a1.02 1.02 0 0 0 .297.508 1.12 1.12 0 0 0 .523.262l1.102.234c.229.048.373.262.321.476-.037.155-.166.269-.322.302l-1.102.234c-.21.045-.392.139-.532.27s-.241.304-.288.5l-.25 1.035c-.051.215-.279.35-.507.302-.165-.035-.287-.156-.321-.302l-.25-1.035c-.047-.197-.148-.368-.287-.5a1.12 1.12 0 0 0-.532-.27l-1.102-.234c-.229-.048-.373-.262-.321-.476.037-.155.166-.269.322-.302l1.102-.234a1.12 1.12 0 0 0 .54-.279 1.01 1.01 0 0 0 .279-.491l.25-1.035c.051-.215.279-.35.507-.302.165.035.287.156.321.302zM7.133 3.007l.38 1.576a1.73 1.73 0 0 0 .498.862l.018.018c.24.218.547.375.9.45l1.678.356c.229.048.372.262.321.476-.037.155-.166.269-.321.302l-1.678.357c-.362.077-.675.24-.918.467s-.415.523-.497.863l-.38 1.576c-.051.215-.279.35-.507.302-.165-.035-.287-.156-.321-.302l-.38-1.576a1.73 1.73 0 0 0-.498-.862c-.243-.228-.556-.391-.917-.468l-1.678-.357c-.229-.048-.373-.262-.321-.476.037-.155.166-.269.321-.302l1.678-.356a1.91 1.91 0 0 0 .917-.468l.019-.017a1.73 1.73 0 0 0 .479-.845l.38-1.576c.051-.215.279-.35.507-.302.165.035.287.156.321.302z" fill="currentColor"></path></svg>